<svg id="Logos" xmlns="http://www.w3.org/2000/svg" xmlns:xlink="http://www.w3.org/1999/xlink" viewBox="0 0 113 112.74345"><defs><linearGradient id="Degradado_Olympia_new" x1="17.4493" y1="95.70505" x2="96.58705" y2="16.5673" gradientUnits="userSpaceOnUse"><stop offset="0" stop-color="#8d0b93"/><stop offset="0.35322" stop-color="#ba098a"/><stop offset="0.78597" stop-color="#ec0680"/><stop offset="1" stop-color="#ff057c"/></linearGradient></defs><path id="logo_olympia" data-name="logo olympia" d="M85.64034,45.55591c11.513.16736,22.16339,10.67175,23.214,22.11088,1.09593,11.933-4.27384,21.09026-12.40745,28.97812a56.95156,56.95156,0,0,1-62.43718,11.35455c-1.13043-.49184-2.1702-1.1901-4.38393-2.42214,2.6885-.65887,4.22292-1.1781,5.7995-1.398C45.633,102.75516,53.2117,97.41135,59.01593,89.09042a9.71415,9.71415,0,0,1,4.94145-3.475C81.064,80.725,89.94923,65.84363,86.00141,48.37357,85.81714,47.55816,85.78375,46.709,85.64034,45.55591ZM23.12058,11.02125C6.05955,23.97217-1.67757,41.12.30323,62.37717,1.27691,72.82635,4.2494,82.64516,12.067,90.32052a26.05145,26.05145,0,0,0,37.47149-1.05775,20.79906,20.79906,0,0,0,1.81336-2.83933c-1.067-.4737-1.69595-.82042-2.36681-1.04093C31.24114,79.55058,23.30342,65.13306,27.70072,46.99263a7.4311,7.4311,0,0,0-.6678-4.775c-5.10454-9.761-5.67165-19.64962-1.38657-29.81192a34.95187,34.95187,0,0,0,.98345-3.47189C24.97836,9.90735,23.97769,10.37061,23.12058,11.02125ZM34.89876,35.23684c13.83209-12.56515,30.39991-12.38345,44.07179.35863a7.91936,7.91936,0,0,0,4.50517,1.81984c11.11294.84944,20.21453,5.3002,26.85716,14.35383a21.32139,21.32139,0,0,1,1.39813,2.554l1.22812-.81658a30.15175,30.15175,0,0,0-.01485-3.23927A56.97143,56.97143,0,0,0,66.75682.89627C57.39731-.77032,48.378-.57124,40.37772,5.50445c-9.782,7.42873-13.2921,21.70468-7.48467,31.23545C33.57589,36.23258,34.28884,35.79089,34.89876,35.23684Z" fill="url(#Degradado_Olympia_new)"/></svg>