<svg id="svg" version="1.1" xmlns="http://www.w3.org/2000/svg" xmlns:xlink="http://www.w3.org/1999/xlink" width="400" height="400" viewBox="0, 0, 400,400"><g id="svgg"><path id="path0" d="M305.888 135.858 L 305.809 136.530 308.136 136.407 C 309.416 136.340,314.869 136.082,320.255 135.835 C 325.641 135.588,330.092 135.340,330.147 135.285 C 330.202 135.230,324.784 135.185,318.107 135.185 L 305.966 135.185 305.888 135.858 M190.932 155.787 C 190.927 165.219,190.872 168.333,190.710 168.333 C 190.591 168.333,190.542 168.382,190.601 168.441 C 190.701 168.541,202.276 160.162,203.032 159.442 C 203.507 158.989,196.074 148.883,191.865 144.259 L 190.938 143.241 190.932 155.787 M205.185 167.911 C 205.185 173.048,205.234 174.416,205.417 174.352 C 205.544 174.307,207.137 173.856,208.956 173.349 C 210.776 172.842,212.302 172.389,212.349 172.343 C 212.395 172.296,210.802 169.813,208.809 166.824 L 205.185 161.390 205.185 167.911 M305.926 166.282 L 305.926 167.059 307.176 166.953 C 307.863 166.894,310.843 166.724,313.796 166.574 C 324.679 166.023,324.601 165.849,313.380 165.642 L 305.926 165.504 305.926 166.282 M133.297 172.674 L 133.241 175.208 134.167 175.082 C 135.323 174.925,135.971 174.601,136.242 174.044 C 137.166 172.146,136.299 170.385,134.364 170.225 L 133.354 170.141 133.297 172.674 M212.772 178.190 C 209.301 181.838,204.736 185.404,198.711 189.173 C 196.311 190.674,190.959 193.704,190.706 193.704 C 190.626 193.704,190.539 198.733,190.512 204.880 L 190.463 216.057 191.228 215.796 C 192.162 215.478,193.424 214.428,193.822 213.639 C 194.609 212.079,195.618 211.661,196.714 212.441 C 198.413 213.651,205.444 210.887,207.449 208.221 C 209.453 205.559,209.622 205.453,211.118 205.941 C 212.552 206.410,212.477 206.429,214.818 204.983 C 218.459 202.734,219.295 201.810,219.968 199.293 C 220.527 197.201,220.825 196.976,222.830 197.134 L 224.455 197.262 225.073 196.608 C 229.927 191.461,225.596 181.534,216.105 176.053 L 215.266 175.568 212.772 178.190 M205.741 176.925 C 203.755 177.463,198.671 178.842,194.444 179.991 L 186.759 182.079 186.811 186.954 L 186.864 191.828 187.552 191.544 C 195.231 188.371,202.965 183.359,207.912 178.348 C 210.770 175.453,210.891 175.532,205.741 176.925 M126.944 182.873 L 126.944 185.411 127.814 185.308 C 131.161 184.912,131.193 180.899,127.853 180.455 L 126.944 180.335 126.944 182.873 M305.926 183.818 L 305.926 184.672 306.898 184.565 C 307.433 184.505,310.037 184.366,312.685 184.256 C 315.333 184.145,317.708 184.008,317.963 183.952 L 318.426 183.849 317.963 183.662 C 317.544 183.493,309.589 182.993,306.991 182.972 L 305.926 182.963 305.926 183.818 M121.204 192.870 L 121.204 195.370 122.135 195.370 C 125.024 195.370,125.344 191.291,122.511 190.578 C 121.132 190.230,121.204 190.104,121.204 192.870 M305.926 199.342 L 305.926 200.962 311.898 200.843 C 321.311 200.655,340.196 200.376,345.278 200.350 C 351.861 200.316,350.189 200.117,337.685 199.448 C 331.778 199.131,323.486 198.670,319.259 198.423 C 315.032 198.176,310.303 197.917,308.750 197.848 L 305.926 197.722 305.926 199.342 M115.648 203.051 L 115.648 205.556 116.361 205.556 C 119.711 205.556,119.820 201.153,116.481 200.668 L 115.648 200.547 115.648 203.051 M165.741 201.458 L 162.315 202.321 162.367 204.305 L 162.420 206.289 164.265 204.819 C 165.280 204.011,166.903 202.867,167.872 202.277 C 169.467 201.305,169.949 200.771,169.352 200.637 C 169.250 200.614,167.625 200.984,165.741 201.458 M109.671 213.194 L 109.722 215.648 110.429 215.706 C 111.053 215.758,111.232 215.669,111.957 214.944 C 113.644 213.256,112.310 210.741,109.727 210.741 C 109.668 210.741,109.642 211.845,109.671 213.194 M122.037 234.263 L 122.037 240.563 122.546 240.440 C 127.327 239.291,137.500 234.054,137.500 232.742 C 137.500 232.590,122.745 227.994,122.176 227.969 C 122.100 227.966,122.037 230.798,122.037 234.263 M99.589 241.029 C 99.637 245.519,99.668 245.925,99.960 245.917 C 100.804 245.893,111.357 243.774,111.372 243.626 C 111.409 243.253,104.904 239.043,101.111 236.985 L 99.537 236.131 99.589 241.029 M305.926 263.981 L 305.926 264.630 314.660 264.630 C 319.465 264.630,323.344 264.578,323.281 264.516 C 323.179 264.414,308.022 263.348,306.528 263.338 C 305.963 263.334,305.926 263.373,305.926 263.981 " stroke="none" fill="#80c452" fill-rule="evenodd"></path><path id="path1" d="M190.941 139.769 C 198.552 147.480,203.286 153.708,213.054 168.863 C 215.367 172.452,216.070 173.227,218.397 174.751 C 232.957 184.293,233.744 195.729,220.432 204.338 C 211.582 210.062,209.367 211.199,197.870 215.922 C 188.452 219.790,180.185 223.612,180.185 224.098 C 180.185 224.221,180.133 224.269,180.069 224.205 C 179.916 224.052,178.889 224.587,178.889 224.820 C 178.889 224.919,178.826 224.990,178.750 224.978 C 178.674 224.966,178.528 224.966,178.426 224.978 C 178.303 224.993,178.257 231.672,178.289 244.710 L 178.337 264.421 177.733 264.496 C 176.707 264.623,230.351 264.635,232.269 264.508 L 234.074 264.389 234.074 261.555 L 234.074 258.720 233.472 258.612 C 232.306 258.400,228.387 258.089,208.981 256.668 C 188.286 255.153,185.031 254.621,183.978 252.587 C 183.335 251.343,185.149 249.413,187.442 248.901 C 191.679 247.955,209.168 246.241,222.500 245.464 C 226.880 245.209,231.113 244.918,231.907 244.818 C 232.701 244.717,233.409 244.644,233.481 244.654 C 234.049 244.738,234.074 244.597,234.074 241.316 C 234.074 237.638,234.126 237.783,232.778 237.697 C 232.421 237.674,231.296 237.519,230.278 237.352 C 229.259 237.184,225.968 236.705,222.963 236.286 C 211.152 234.641,208.395 233.114,212.114 230.277 C 213.362 229.325,214.436 229.090,222.664 227.962 C 232.050 226.676,231.496 226.758,231.869 226.594 C 232.032 226.522,232.385 226.504,232.654 226.552 C 232.922 226.601,233.190 226.563,233.249 226.469 C 233.307 226.374,233.517 226.296,233.715 226.296 C 234.164 226.296,234.289 218.580,233.843 218.428 C 233.715 218.384,233.236 218.311,232.778 218.264 C 232.319 218.218,231.028 218.049,229.907 217.890 C 228.787 217.730,227.734 217.598,227.567 217.596 C 227.401 217.594,226.755 217.253,226.133 216.837 L 225.001 216.081 225.768 215.440 C 226.190 215.087,226.677 214.723,226.849 214.631 C 227.139 214.476,231.467 213.760,233.288 213.565 L 234.076 213.481 234.029 195.583 C 233.993 182.213,233.927 177.685,233.768 177.685 C 233.650 177.685,233.347 177.461,233.093 177.187 C 232.839 176.914,232.592 176.729,232.544 176.777 C 232.292 177.029,232.017 175.754,232.235 175.341 C 232.557 174.730,233.700 173.679,233.904 173.806 C 234.006 173.869,234.074 171.754,234.074 168.529 C 234.074 163.533,234.051 163.147,233.750 163.135 C 233.572 163.127,233.134 163.097,232.778 163.068 C 232.043 163.008,229.435 162.820,226.296 162.602 C 220.568 162.203,217.731 160.108,220.641 158.426 C 221.892 157.704,223.262 157.409,227.130 157.026 C 229.167 156.825,231.286 156.578,231.840 156.478 C 232.393 156.378,233.122 156.296,233.460 156.296 L 234.074 156.296 234.074 153.981 L 234.074 151.667 233.230 151.667 C 232.766 151.667,231.828 151.584,231.147 151.483 C 230.465 151.382,226.032 151.049,221.296 150.743 C 210.993 150.078,210.169 149.912,209.277 148.325 C 208.584 147.092,209.036 146.140,210.719 145.290 C 212.368 144.457,213.365 144.267,221.972 143.146 C 226.744 142.524,231.002 141.927,231.434 141.819 C 231.867 141.711,232.388 141.667,232.592 141.720 C 232.796 141.773,233.010 141.741,233.067 141.648 C 233.125 141.555,233.375 141.515,233.623 141.560 L 234.074 141.642 234.074 138.534 L 234.074 135.426 232.269 135.307 C 231.275 135.241,220.553 135.187,208.440 135.186 L 186.417 135.185 190.941 139.769 M168.644 158.949 C 167.256 160.055,164.818 161.395,162.870 162.123 C 160.842 162.882,160.379 163.288,158.391 166.052 C 155.320 170.323,154.825 171.059,154.946 171.180 C 155.009 171.244,154.970 171.296,154.858 171.296 C 154.746 171.296,154.466 171.561,154.235 171.885 C 154.005 172.209,153.915 172.413,154.036 172.339 C 154.204 172.235,154.267 174.099,154.304 180.241 L 154.352 188.280 159.444 186.921 C 165.110 185.408,167.559 184.640,169.074 183.900 L 170.093 183.402 170.140 170.683 C 170.166 163.687,170.119 157.963,170.034 157.963 C 169.950 157.963,169.324 158.407,168.644 158.949 M143.796 163.167 C 136.534 163.620,134.628 164.250,130.699 167.500 L 129.356 168.611 132.224 168.704 C 136.833 168.852,138.649 170.363,137.954 173.468 C 137.358 176.126,136.656 176.368,129.218 176.481 C 122.470 176.585,122.567 176.565,122.300 177.898 L 122.184 178.480 124.379 178.608 C 130.452 178.963,132.721 180.509,131.857 183.704 C 131.089 186.546,127.991 187.216,119.444 186.388 C 118.986 186.343,118.715 186.353,118.843 186.410 C 119.234 186.583,119.150 188.513,118.750 188.540 C 118.572 188.552,119.384 188.672,120.556 188.807 C 124.291 189.238,125.909 190.480,125.922 192.923 C 125.937 195.858,123.686 197.239,119.625 196.785 C 119.067 196.722,118.715 196.719,118.843 196.777 C 119.003 196.850,119.074 197.403,119.074 198.585 C 119.074 200.182,119.106 200.323,119.583 200.855 C 119.863 201.166,120.123 201.581,120.160 201.775 C 120.296 202.494,120.300 204.630,120.164 204.630 C 119.996 204.630,119.720 205.388,119.794 205.648 C 119.822 205.750,119.790 205.778,119.722 205.710 C 119.654 205.642,119.460 205.725,119.290 205.895 C 118.768 206.417,118.921 224.617,119.448 224.657 C 119.650 224.673,119.919 224.694,120.046 224.704 C 120.174 224.714,120.319 224.774,120.370 224.837 C 120.488 224.982,138.043 230.000,138.433 230.000 C 139.239 230.000,141.421 227.850,145.833 222.704 C 146.343 222.110,146.951 221.426,147.184 221.183 C 147.418 220.940,147.568 220.741,147.517 220.741 C 147.466 220.741,147.817 220.351,148.296 219.874 C 148.775 219.397,149.063 219.069,148.935 219.144 C 148.759 219.248,148.704 218.969,148.704 217.974 C 148.704 216.935,148.647 216.667,148.426 216.667 C 148.273 216.667,148.148 216.593,148.148 216.502 C 148.148 216.412,147.919 216.298,147.639 216.249 C 147.096 216.154,134.065 212.633,132.029 212.032 C 130.831 211.678,129.259 210.675,129.259 210.264 C 129.259 209.704,130.879 208.372,132.238 207.814 C 133.343 207.360,145.100 203.975,146.993 203.565 C 147.224 203.515,147.458 203.401,147.514 203.311 C 147.569 203.222,147.860 203.148,148.159 203.148 L 148.704 203.148 148.704 197.755 C 148.704 193.467,148.656 192.399,148.472 192.545 C 148.345 192.645,147.897 192.780,147.477 192.844 C 147.057 192.907,145.021 193.419,142.952 193.980 C 139.919 194.802,138.914 195.000,137.765 195.000 L 136.339 195.000 136.590 193.682 C 136.872 192.205,137.181 191.696,143.657 182.044 C 145.534 179.247,147.233 176.639,147.432 176.248 C 147.631 175.857,147.915 175.491,148.063 175.435 C 148.210 175.378,148.288 175.262,148.236 175.177 C 148.183 175.092,148.246 174.955,148.376 174.872 C 148.693 174.670,149.236 173.962,148.935 174.142 C 148.752 174.252,148.704 173.124,148.704 168.740 L 148.704 163.200 147.731 163.083 C 147.197 163.019,146.634 162.978,146.481 162.991 C 146.329 163.005,145.120 163.084,143.796 163.167 M123.796 172.645 L 123.796 175.196 125.833 175.145 L 127.870 175.093 127.922 172.650 L 127.974 170.208 125.885 170.150 L 123.796 170.093 123.796 172.645 M188.638 173.341 C 184.030 176.812,184.216 176.578,184.297 178.804 L 184.352 180.293 189.022 178.989 C 191.591 178.272,193.612 177.657,193.513 177.623 C 193.405 177.586,193.333 176.088,193.333 173.873 C 193.333 170.886,193.285 170.185,193.081 170.185 C 192.943 170.185,190.943 171.605,188.638 173.341 M117.557 182.276 L 117.500 184.788 119.181 184.914 C 121.755 185.106,121.565 185.285,121.626 182.606 C 121.689 179.863,121.837 180.052,119.501 179.893 L 117.613 179.763 117.557 182.276 M111.815 191.931 L 111.872 194.425 112.649 194.528 C 113.076 194.586,113.968 194.652,114.630 194.677 L 115.833 194.722 115.833 192.323 L 115.833 189.924 115.185 189.798 C 114.829 189.729,113.912 189.619,113.148 189.554 L 111.759 189.437 111.815 191.931 M106.299 201.464 C 106.303 204.292,106.216 204.153,108.148 204.434 C 109.014 204.560,109.868 204.703,110.046 204.751 C 110.344 204.833,110.370 204.626,110.370 202.235 C 110.370 199.880,110.339 199.629,110.046 199.623 C 109.868 199.620,108.951 199.508,108.009 199.374 L 106.296 199.132 106.299 201.464 M146.335 206.223 C 140.642 207.622,141.296 207.145,141.296 209.896 L 141.296 212.208 141.991 212.391 C 145.571 213.334,149.535 214.259,149.993 214.259 L 150.556 214.259 150.556 209.722 C 150.556 207.227,150.535 205.190,150.509 205.197 C 150.484 205.203,148.606 205.665,146.335 206.223 M100.556 211.244 L 100.556 213.825 102.335 214.226 C 104.573 214.730,104.444 214.867,104.444 211.965 L 104.444 209.508 102.917 209.185 C 102.076 209.007,101.201 208.817,100.972 208.763 L 100.556 208.664 100.556 211.244 M92.778 220.672 C 90.033 221.065,86.980 221.858,79.167 224.204 C 76.464 225.016,76.673 224.690,76.670 228.111 L 76.667 230.944 77.454 230.832 C 77.887 230.771,78.752 230.642,79.376 230.546 C 85.162 229.652,92.838 230.424,96.157 232.234 C 96.463 232.400,96.481 232.078,96.481 226.599 L 96.481 220.787 95.903 220.671 C 95.311 220.553,93.608 220.553,92.778 220.672 M74.259 233.366 C 71.641 233.702,69.060 233.916,67.315 233.941 L 64.537 233.981 64.537 241.713 C 64.537 246.734,64.602 249.449,64.722 249.459 C 64.824 249.466,65.074 249.516,65.278 249.568 C 66.847 249.973,76.973 249.373,79.352 248.734 L 79.907 248.585 79.956 240.722 L 80.004 232.858 79.215 232.845 C 78.781 232.837,76.551 233.072,74.259 233.366 M129.815 241.219 C 129.458 241.453,129.036 241.650,128.877 241.656 C 128.718 241.662,128.260 241.824,127.859 242.017 C 123.874 243.928,107.447 247.749,94.815 249.702 C 91.759 250.174,84.781 251.111,84.319 251.111 C 84.120 251.111,84.074 252.402,84.074 257.951 L 84.074 264.790 83.565 264.883 C 83.285 264.934,84.884 264.938,87.119 264.892 C 91.632 264.800,91.841 264.749,93.956 263.237 C 95.252 262.310,95.886 262.356,97.510 263.493 C 99.496 264.883,99.572 264.897,105.463 264.894 L 110.648 264.892 111.667 264.386 C 112.227 264.108,113.090 263.591,113.586 263.237 C 114.987 262.234,115.244 262.287,117.947 264.122 C 118.996 264.834,123.600 264.712,127.593 263.867 C 128.153 263.748,128.826 263.635,129.088 263.615 C 129.351 263.596,129.663 263.520,129.783 263.446 C 129.902 263.372,130.084 263.363,130.186 263.427 C 130.541 263.646,130.559 263.010,130.511 251.924 L 130.463 240.792 129.815 241.219 " stroke="none" fill="#64c49f" fill-rule="evenodd"></path><path id="path2" d="M176.917 135.202 C 175.031 135.749,174.541 137.545,175.205 141.481 C 176.394 148.531,175.515 151.984,171.398 156.430 L 170.180 157.746 170.136 170.618 L 170.093 183.490 171.343 182.810 C 172.751 182.044,174.469 180.811,177.263 178.558 C 178.310 177.714,179.958 176.418,180.926 175.678 L 182.685 174.332 182.732 155.490 L 182.780 136.648 181.621 136.109 C 179.577 135.158,178.072 134.868,176.917 135.202 M232.824 135.323 L 234.074 135.387 234.074 138.531 L 234.074 141.674 234.491 141.582 C 236.115 141.225,250.601 140.031,265.926 138.992 C 271.171 138.636,275.921 138.298,276.481 138.242 C 277.042 138.185,277.667 138.138,277.870 138.138 C 278.213 138.137,278.236 138.034,278.180 136.763 L 278.120 135.388 279.384 135.323 C 280.079 135.287,269.606 135.258,256.111 135.258 C 242.616 135.258,232.137 135.287,232.824 135.323 M231.898 141.794 C 232.076 141.841,232.368 141.841,232.546 141.794 C 232.725 141.748,232.579 141.710,232.222 141.710 C 231.866 141.710,231.720 141.748,231.898 141.794 M232.917 151.619 L 234.074 151.684 234.074 153.990 C 234.074 156.194,234.091 156.296,234.455 156.296 C 234.665 156.296,238.144 156.008,242.187 155.655 C 250.168 154.959,257.321 154.433,265.000 153.978 C 271.017 153.621,271.111 153.608,271.111 153.140 C 271.111 152.786,270.926 152.778,263.152 152.778 C 255.400 152.778,250.022 152.567,237.163 151.759 C 234.737 151.606,232.528 151.498,232.255 151.517 C 231.983 151.537,232.280 151.582,232.917 151.619 M232.731 156.427 C 232.961 156.471,233.336 156.471,233.565 156.427 C 233.794 156.383,233.606 156.347,233.148 156.347 C 232.690 156.347,232.502 156.383,232.731 156.427 M152.222 162.787 C 150.745 162.858,149.037 162.941,148.426 162.971 C 147.574 163.013,147.477 163.042,148.009 163.098 L 148.704 163.171 148.704 168.726 C 148.704 171.906,148.774 174.238,148.868 174.180 C 148.958 174.124,149.698 173.140,150.511 171.993 C 151.325 170.846,153.250 168.324,154.789 166.389 C 156.328 164.454,157.588 162.808,157.590 162.731 C 157.593 162.578,156.268 162.592,152.222 162.787 M233.657 163.082 L 234.074 163.174 234.074 168.439 C 234.074 171.334,234.095 173.704,234.120 173.704 C 234.146 173.704,234.614 173.534,235.160 173.326 C 236.981 172.634,273.661 168.638,277.593 168.703 L 278.241 168.714 278.183 166.776 L 278.125 164.839 278.831 164.771 C 279.219 164.733,278.745 164.687,277.778 164.668 C 273.163 164.575,257.891 164.037,248.148 163.623 C 242.190 163.370,236.398 163.124,235.278 163.076 C 234.157 163.029,233.428 163.031,233.657 163.082 M196.582 167.429 C 194.549 168.945,192.986 170.185,193.109 170.185 C 193.277 170.185,193.333 171.115,193.333 173.889 C 193.333 177.313,193.358 177.593,193.662 177.593 C 194.067 177.593,199.760 175.968,200.222 175.721 C 200.573 175.533,200.761 164.957,200.417 164.755 C 200.340 164.710,198.614 165.914,196.582 167.429 M127.927 172.685 L 127.870 175.186 129.630 175.186 L 131.389 175.186 131.333 172.685 L 131.276 170.185 129.630 170.185 L 127.983 170.185 127.927 172.685 M232.305 175.204 C 232.037 175.723,232.232 177.089,232.532 176.789 C 232.573 176.748,232.512 176.507,232.396 176.253 C 232.229 175.886,232.247 175.674,232.487 175.211 C 232.652 174.891,232.746 174.630,232.695 174.630 C 232.644 174.630,232.468 174.888,232.305 175.204 M234.074 195.618 L 234.074 213.497 233.380 213.575 C 232.998 213.617,233.352 213.620,234.167 213.581 C 236.532 213.467,261.471 212.627,268.981 212.407 C 272.750 212.298,276.348 212.163,276.976 212.109 L 278.119 212.011 278.180 210.742 C 278.229 209.714,278.188 209.472,277.963 209.463 C 270.738 209.199,245.552 206.343,244.140 205.628 C 240.590 203.831,242.278 202.571,248.831 202.125 C 253.481 201.809,264.512 201.495,271.296 201.485 C 273.690 201.482,276.211 201.426,276.898 201.361 L 278.148 201.243 278.148 198.871 L 278.148 196.498 277.546 196.410 C 277.215 196.361,271.569 196.061,265.000 195.741 C 250.122 195.018,247.918 194.769,245.927 193.579 C 244.030 192.446,244.687 190.500,247.224 189.734 C 248.158 189.452,275.566 186.859,278.056 186.818 C 278.565 186.809,278.794 186.766,278.565 186.721 C 277.990 186.610,277.902 181.946,278.472 181.791 C 278.651 181.743,278.547 181.699,278.241 181.694 C 269.690 181.548,236.410 178.634,234.373 177.853 C 234.099 177.748,234.074 179.236,234.074 195.618 M121.574 182.495 L 121.574 184.953 122.945 185.069 C 125.340 185.272,125.093 185.534,125.093 182.793 C 125.093 181.478,125.051 180.408,125.000 180.417 C 124.949 180.426,124.616 180.381,124.259 180.319 C 123.903 180.256,123.153 180.167,122.593 180.120 L 121.574 180.036 121.574 182.495 M279.308 181.800 C 279.590 181.842,280.006 181.841,280.234 181.797 C 280.462 181.753,280.231 181.718,279.722 181.720 C 279.213 181.721,279.027 181.757,279.308 181.800 M171.667 186.307 C 171.667 186.415,171.597 186.460,171.511 186.407 C 171.349 186.307,169.959 186.668,157.685 189.996 C 153.611 191.101,149.924 192.099,149.491 192.213 L 148.704 192.422 148.704 197.755 L 148.704 203.088 151.343 202.371 C 152.794 201.976,157.648 200.696,162.130 199.525 C 166.611 198.354,170.671 197.259,171.152 197.090 L 172.026 196.783 172.078 191.447 C 172.118 187.274,172.079 186.111,171.898 186.111 C 171.771 186.111,171.667 186.199,171.667 186.307 M279.769 186.612 C 279.998 186.656,280.373 186.656,280.602 186.612 C 280.831 186.568,280.644 186.532,280.185 186.532 C 279.727 186.532,279.539 186.568,279.769 186.612 M115.833 192.293 L 115.833 194.793 116.759 194.903 C 117.269 194.963,118.060 195.056,118.519 195.110 L 119.352 195.207 119.352 192.707 L 119.352 190.207 118.519 190.110 C 118.060 190.056,117.269 189.963,116.759 189.903 L 115.833 189.793 115.833 192.293 M110.370 202.248 C 110.370 204.173,110.428 204.817,110.602 204.825 C 110.729 204.830,111.500 204.945,112.315 205.080 C 113.130 205.216,113.831 205.294,113.873 205.256 C 113.916 205.217,113.853 205.185,113.735 205.185 C 113.581 205.185,113.519 204.466,113.519 202.685 C 113.519 201.310,113.498 200.184,113.472 200.181 C 113.447 200.179,112.738 200.066,111.898 199.929 L 110.370 199.681 110.370 202.248 M154.352 204.242 C 152.824 204.620,151.345 204.989,151.065 205.061 L 150.556 205.192 150.556 209.712 C 150.556 213.861,150.529 214.239,150.231 214.317 C 150.053 214.363,150.349 214.411,150.889 214.423 C 152.148 214.451,152.487 214.265,155.282 212.019 C 157.954 209.872,157.807 210.204,157.738 206.484 C 157.675 203.085,158.041 203.328,154.352 204.242 M167.044 206.469 C 166.938 206.666,166.665 206.885,166.435 206.957 C 165.468 207.260,160.217 211.664,156.408 215.368 C 152.388 219.277,149.195 222.943,144.764 228.735 C 140.905 233.778,136.456 237.680,131.716 240.180 L 130.561 240.789 130.512 252.126 L 130.463 263.462 131.944 263.137 C 139.772 261.422,145.754 258.210,150.700 253.065 C 152.848 250.831,154.128 249.036,157.315 243.793 C 159.376 240.401,162.875 235.345,164.827 232.936 C 165.635 231.940,166.296 231.044,166.296 230.946 C 166.296 230.848,166.506 230.602,166.763 230.401 L 167.230 230.033 167.180 226.110 L 167.130 222.186 165.548 223.666 C 164.678 224.480,162.729 226.694,161.217 228.586 C 158.533 231.943,157.566 232.813,157.071 232.318 C 156.277 231.524,158.696 225.234,161.313 221.284 C 162.358 219.709,166.472 215.248,166.487 215.675 C 166.491 215.762,166.608 215.682,166.748 215.497 C 166.889 215.312,167.056 215.166,167.119 215.173 C 167.183 215.180,167.253 213.144,167.275 210.648 C 167.297 208.153,167.297 206.111,167.275 206.111 C 167.253 206.111,167.149 206.272,167.044 206.469 M104.408 212.055 C 104.355 214.517,104.370 214.651,104.722 214.735 C 104.926 214.784,105.676 214.933,106.389 215.067 L 107.685 215.310 107.629 212.765 L 107.573 210.220 106.240 209.910 C 105.507 209.739,104.808 209.569,104.686 209.531 C 104.522 209.481,104.449 210.149,104.408 212.055 M278.845 211.983 C 279.075 212.027,279.408 212.025,279.585 211.979 C 279.763 211.933,279.574 211.896,279.167 211.899 C 278.759 211.901,278.614 211.939,278.845 211.983 M148.380 216.609 C 148.649 216.680,148.705 216.916,148.711 218.023 L 148.718 219.352 149.637 218.367 C 150.142 217.825,150.556 217.315,150.556 217.234 C 150.556 217.087,148.562 216.462,148.229 216.503 C 148.133 216.515,148.201 216.563,148.380 216.609 M234.035 222.290 L 234.088 226.269 233.664 226.365 C 233.125 226.488,234.357 226.388,238.981 225.931 C 243.618 225.472,249.426 225.091,257.407 224.720 C 265.965 224.323,276.811 223.876,277.594 223.888 L 278.244 223.899 278.176 223.038 C 278.132 222.488,278.190 222.126,278.336 222.036 C 278.471 221.952,278.308 221.888,277.940 221.879 C 277.596 221.870,272.231 221.447,266.019 220.940 C 259.806 220.432,250.514 219.677,245.370 219.262 C 240.227 218.847,235.560 218.464,235.000 218.409 L 233.981 218.311 234.035 222.290 M96.065 220.679 L 96.481 220.767 96.481 226.596 L 96.481 232.426 97.096 232.683 C 97.434 232.824,99.289 233.807,101.217 234.867 C 103.145 235.927,106.097 237.526,107.778 238.420 C 109.458 239.314,111.167 240.236,111.574 240.467 L 112.315 240.887 112.261 232.897 L 112.208 224.907 106.826 223.176 C 101.427 221.439,99.091 220.855,96.852 220.684 C 96.190 220.633,95.836 220.631,96.065 220.679 M279.861 223.831 C 280.039 223.878,280.331 223.878,280.509 223.831 C 280.688 223.785,280.542 223.747,280.185 223.747 C 279.829 223.747,279.683 223.785,279.861 223.831 M81.717 232.440 L 80.008 232.630 79.958 240.680 L 79.907 248.729 81.019 248.609 C 81.630 248.543,84.296 248.195,86.944 247.837 C 89.593 247.478,91.843 247.180,91.944 247.173 C 92.338 247.147,92.081 233.450,91.682 233.201 C 90.567 232.504,84.974 232.077,81.717 232.440 M232.454 237.720 C 232.632 237.767,232.924 237.767,233.102 237.720 C 233.280 237.674,233.134 237.636,232.778 237.636 C 232.421 237.636,232.275 237.674,232.454 237.720 M233.843 237.892 C 234.015 237.968,234.074 238.832,234.074 241.296 C 234.074 243.763,234.015 244.624,233.843 244.697 C 233.715 244.750,234.319 244.757,235.185 244.711 C 244.381 244.226,273.564 243.154,277.731 243.149 C 278.107 243.148,278.148 243.058,278.148 242.235 C 278.148 241.431,278.198 241.314,278.565 241.256 C 278.794 241.219,277.731 241.126,276.204 241.049 C 274.676 240.973,270.968 240.787,267.963 240.637 C 258.450 240.163,248.985 239.417,239.907 238.428 C 234.866 237.878,233.546 237.761,233.843 237.892 M278.657 243.094 C 278.887 243.138,279.262 243.138,279.491 243.094 C 279.720 243.050,279.532 243.013,279.074 243.013 C 278.616 243.013,278.428 243.050,278.657 243.094 M280.419 243.096 C 280.701 243.138,281.117 243.137,281.345 243.093 C 281.573 243.049,281.343 243.015,280.833 243.016 C 280.324 243.017,280.138 243.053,280.419 243.096 M233.750 258.636 C 234.040 258.721,234.074 259.026,234.074 261.579 L 234.074 264.428 232.824 264.492 C 232.137 264.528,242.616 264.557,256.111 264.557 C 269.606 264.557,280.086 264.528,279.398 264.492 L 278.148 264.428 278.148 263.063 C 278.148 262.139,278.223 261.670,278.380 261.612 C 278.507 261.565,278.236 261.522,277.778 261.515 C 276.932 261.503,266.201 260.775,247.222 259.441 C 235.926 258.648,233.246 258.488,233.750 258.636 " stroke="none" fill="#74c478" fill-rule="evenodd"></path><path id="path3" d="M122.719 170.180 C 119.865 170.728,119.907 174.376,122.776 175.020 C 123.878 175.268,123.907 175.198,123.848 172.500 C 123.792 169.944,123.806 169.972,122.719 170.180 M153.970 172.364 C 153.700 172.550,149.549 178.599,146.021 183.946 C 143.222 188.189,142.955 188.694,142.694 190.231 L 142.576 190.926 143.650 190.926 C 144.555 190.926,148.907 189.851,153.935 188.385 C 154.217 188.303,154.493 172.208,154.213 172.225 C 154.187 172.227,154.078 172.289,153.970 172.364 M181.030 178.994 C 176.267 182.555,176.265 182.597,180.916 181.278 C 184.746 180.192,184.211 180.651,184.288 178.379 C 184.323 177.335,184.352 176.488,184.352 176.496 C 184.352 176.504,182.857 177.628,181.030 178.994 M115.623 180.170 C 113.662 181.366,114.096 183.988,116.361 184.622 C 117.568 184.960,117.593 184.911,117.593 182.211 L 117.593 179.815 116.898 179.816 C 116.516 179.816,115.943 179.975,115.623 180.170 M116.667 186.532 C 116.239 186.745,115.413 188.067,115.595 188.249 C 115.715 188.370,118.380 188.629,118.750 188.556 C 119.198 188.467,119.226 186.579,118.781 186.409 C 118.293 186.221,117.158 186.288,116.667 186.532 M110.648 189.566 C 107.644 190.253,108.023 193.777,111.163 194.358 L 111.863 194.488 111.811 192.012 C 111.755 189.328,111.748 189.314,110.648 189.566 M110.509 196.126 C 110.119 196.353,109.630 197.253,109.630 197.744 C 109.630 198.061,109.976 198.151,112.917 198.597 C 116.187 199.094,118.704 199.714,118.704 200.023 C 118.704 200.112,118.787 200.185,118.889 200.185 C 119.221 200.185,119.123 196.910,118.787 196.781 C 117.669 196.352,111.024 195.826,110.509 196.126 M104.020 199.447 C 102.472 200.665,103.023 203.395,104.912 203.871 C 106.475 204.264,106.396 204.392,106.333 201.574 L 106.276 199.074 105.385 199.074 C 104.772 199.074,104.346 199.191,104.020 199.447 M104.575 205.929 C 104.058 206.335,103.567 207.538,103.823 207.772 C 103.910 207.852,105.717 208.298,107.837 208.763 C 113.224 209.944,114.353 210.733,114.351 213.320 C 114.348 217.396,110.664 218.137,102.315 215.742 C 99.742 215.004,98.529 215.379,97.864 217.121 C 97.492 218.095,97.551 218.220,98.567 218.591 C 99.535 218.945,118.626 224.444,118.886 224.444 C 119.011 224.444,119.074 221.376,119.074 215.370 C 119.074 210.380,119.042 206.296,119.002 206.296 C 118.962 206.296,118.566 206.461,118.122 206.663 C 116.882 207.225,112.605 206.888,107.583 205.831 C 105.826 205.462,105.141 205.484,104.575 205.929 M138.889 208.055 C 137.616 208.395,136.082 208.943,135.481 209.273 L 134.388 209.873 135.477 210.424 C 136.076 210.727,137.484 211.218,138.607 211.515 C 139.730 211.812,140.789 212.097,140.962 212.148 C 141.243 212.231,141.281 211.993,141.332 209.824 C 141.363 208.494,141.347 207.413,141.296 207.421 C 141.245 207.429,140.162 207.714,138.889 208.055 M98.236 209.347 C 96.651 210.932,97.507 213.183,99.861 213.617 L 100.556 213.745 100.556 211.244 C 100.556 209.135,100.510 208.726,100.263 208.631 C 99.554 208.359,99.043 208.540,98.236 209.347 M71.759 226.557 C 67.362 228.077,64.074 229.336,62.819 229.980 L 62.171 230.312 62.808 230.799 C 64.544 232.122,66.231 232.267,71.944 231.583 C 74.185 231.315,76.160 231.053,76.334 231.001 C 76.783 230.866,76.928 224.993,76.481 225.010 C 76.329 225.015,74.204 225.711,71.759 226.557 M177.407 225.534 C 177.153 225.715,176.446 226.190,175.836 226.589 C 169.766 230.563,163.199 238.434,158.021 247.939 C 153.472 256.290,148.215 260.889,140.074 263.637 C 138.913 264.029,137.963 264.413,137.963 264.490 C 137.963 264.658,176.249 264.680,177.474 264.512 L 178.333 264.394 178.333 244.790 C 178.333 229.224,178.286 225.187,178.102 225.195 C 177.975 225.201,177.662 225.354,177.407 225.534 M59.074 231.888 C 53.567 235.042,51.902 241.919,55.721 245.739 C 57.144 247.162,63.878 249.900,64.479 249.299 C 64.564 249.214,64.612 245.744,64.585 241.588 L 64.537 234.033 63.559 233.668 C 62.962 233.445,62.159 232.913,61.497 232.300 C 60.227 231.123,60.367 231.147,59.074 231.888 M51.408 245.231 C 47.256 256.813,54.431 264.815,68.969 264.815 C 72.459 264.815,72.592 264.779,74.074 263.430 C 75.281 262.331,76.208 262.308,77.651 263.340 C 79.419 264.607,80.033 264.806,82.176 264.811 L 84.074 264.815 84.074 258.000 L 84.074 251.185 83.472 251.239 C 83.141 251.268,81.579 251.417,80.000 251.569 C 62.623 253.244,57.750 252.088,52.880 245.139 C 51.822 243.629,51.986 243.618,51.408 245.231 " stroke="none" fill="#59c4b7" fill-rule="evenodd"></path><path id="path4" d="M279.390 135.323 L 278.132 135.388 278.187 136.717 L 278.241 138.047 279.815 138.000 C 280.681 137.975,285.472 137.707,290.463 137.405 C 295.454 137.104,300.884 136.782,302.530 136.690 C 305.877 136.504,305.926 136.490,305.926 135.730 L 305.926 135.185 293.287 135.221 C 286.336 135.241,280.082 135.287,279.390 135.323 M182.733 155.323 C 182.771 170.216,182.733 174.187,182.548 174.423 C 182.309 174.729,182.415 174.667,183.238 174.019 C 183.342 173.938,184.975 172.728,186.868 171.331 C 188.761 169.934,190.448 168.652,190.618 168.483 C 190.899 168.201,190.926 167.089,190.926 155.720 L 190.926 143.265 188.750 141.144 C 186.664 139.110,184.716 137.568,183.333 136.855 L 182.685 136.521 182.733 155.323 M202.963 162.637 C 201.995 163.361,201.094 164.107,200.960 164.294 C 200.825 164.482,200.659 164.601,200.589 164.558 C 200.520 164.515,200.463 167.013,200.463 170.110 C 200.463 174.491,200.514 175.741,200.694 175.741 C 200.822 175.741,200.926 175.652,200.926 175.545 C 200.926 175.437,200.998 175.393,201.086 175.447 C 201.174 175.502,202.132 175.285,203.216 174.965 L 205.185 174.383 205.185 167.840 C 205.185 162.722,205.135 161.299,204.954 161.309 C 204.826 161.316,203.931 161.914,202.963 162.637 M278.188 166.680 L 278.241 168.605 278.796 168.568 C 279.102 168.548,280.269 168.488,281.389 168.434 C 284.460 168.287,298.585 167.429,301.852 167.191 C 303.431 167.076,304.998 166.989,305.334 166.997 C 305.939 167.012,305.945 167.003,305.890 166.248 L 305.833 165.484 303.889 165.427 C 294.747 165.160,287.971 164.977,283.465 164.875 L 278.135 164.755 278.188 166.680 M131.337 172.639 L 131.389 175.093 132.315 175.093 L 133.241 175.093 133.292 172.639 L 133.344 170.185 132.315 170.185 L 131.286 170.185 131.337 172.639 M125.000 182.749 L 125.093 185.083 125.920 185.224 C 127.041 185.415,127.056 185.380,126.997 182.763 L 126.944 180.463 125.926 180.439 L 124.907 180.415 125.000 182.749 M278.447 181.819 C 278.191 181.870,278.148 182.219,278.148 184.267 L 278.148 186.656 280.231 186.560 C 281.988 186.479,293.486 185.562,302.315 184.799 C 303.639 184.684,304.993 184.599,305.324 184.610 C 305.917 184.629,305.926 184.617,305.926 183.796 C 305.926 183.132,305.860 182.960,305.602 182.948 C 305.424 182.940,304.736 182.900,304.074 182.859 C 298.763 182.532,278.910 181.726,278.447 181.819 M179.259 184.124 C 175.440 185.158,172.254 186.090,172.179 186.196 C 172.012 186.433,171.990 196.852,172.156 196.852 C 173.000 196.852,183.057 193.422,186.065 192.108 L 186.852 191.764 186.852 186.993 C 186.852 182.568,186.828 182.223,186.528 182.234 C 186.350 182.241,183.079 183.091,179.259 184.124 M119.349 190.404 C 119.293 190.550,119.271 191.662,119.299 192.875 L 119.352 195.079 120.049 195.244 C 121.265 195.531,121.296 195.471,121.296 192.887 C 121.296 191.617,121.226 190.534,121.140 190.481 C 120.691 190.204,119.446 190.150,119.349 190.404 M189.537 194.390 C 189.028 194.656,186.653 195.782,184.259 196.892 C 176.015 200.715,171.788 202.962,169.412 204.783 C 168.768 205.276,168.157 205.693,168.056 205.709 C 167.270 205.831,167.222 206.115,167.222 210.646 C 167.222 214.650,167.309 215.424,167.687 214.812 C 167.751 214.708,167.882 214.672,167.977 214.731 C 168.073 214.790,168.201 214.708,168.261 214.550 C 168.322 214.391,168.440 214.303,168.523 214.355 C 168.606 214.406,168.806 214.316,168.967 214.155 C 169.128 213.994,169.259 213.911,169.259 213.971 C 169.259 214.031,169.655 213.880,170.139 213.636 C 173.688 211.842,179.693 211.239,181.660 212.479 L 182.654 213.106 181.651 213.682 C 181.099 213.999,180.273 214.396,179.815 214.564 C 175.396 216.187,171.292 218.398,169.122 220.325 C 168.807 220.605,168.147 221.167,167.655 221.574 C 167.163 221.981,166.302 222.763,165.742 223.311 L 164.722 224.307 165.926 223.267 L 167.130 222.226 167.180 226.130 L 167.230 230.033 169.261 228.087 C 175.578 222.034,181.704 218.520,190.324 216.005 C 190.524 215.947,190.709 193.860,190.509 193.898 C 190.484 193.902,190.046 194.124,189.537 194.390 M278.148 198.900 L 278.148 201.236 280.787 201.267 C 282.762 201.289,299.112 201.011,305.324 200.849 L 305.926 200.833 305.926 199.327 L 305.926 197.820 304.954 197.703 C 303.311 197.506,285.626 196.729,279.861 196.602 L 278.148 196.564 278.148 198.900 M113.519 202.665 L 113.519 205.178 113.974 205.292 C 114.224 205.355,114.703 205.419,115.039 205.435 L 115.648 205.463 115.700 203.111 C 115.758 200.469,115.788 200.529,114.306 200.283 L 113.519 200.153 113.519 202.665 M160.648 202.711 C 160.037 202.856,159.120 203.093,158.611 203.238 L 157.685 203.502 157.685 206.828 C 157.685 209.778,157.716 210.123,157.963 209.887 C 158.116 209.740,159.178 208.860,160.324 207.931 L 162.407 206.241 162.407 204.324 C 162.407 202.145,162.538 202.264,160.648 202.711 M166.400 206.765 C 166.202 206.915,166.124 207.037,166.226 207.037 C 166.327 207.037,166.572 206.915,166.770 206.765 C 166.968 206.616,167.046 206.493,166.944 206.493 C 166.843 206.493,166.597 206.616,166.400 206.765 M278.235 209.604 C 278.187 209.652,278.148 210.203,278.148 210.828 L 278.148 211.964 281.898 211.904 C 283.961 211.870,289.148 211.782,293.426 211.708 L 301.204 211.574 297.963 211.244 C 292.796 210.717,283.006 209.821,281.389 209.727 C 280.574 209.679,279.551 209.613,279.115 209.579 C 278.679 209.545,278.283 209.556,278.235 209.604 M107.593 212.671 C 107.593 214.042,107.655 215.202,107.731 215.249 C 107.808 215.296,108.269 215.394,108.756 215.467 L 109.641 215.599 109.589 213.137 C 109.531 210.385,109.696 210.699,108.102 210.304 L 107.593 210.178 107.593 212.671 M278.146 222.841 L 278.241 223.771 281.204 223.732 C 282.833 223.711,285.708 223.613,287.593 223.515 C 289.477 223.417,291.435 223.330,291.944 223.322 C 294.843 223.278,286.744 222.405,280.833 222.125 C 279.815 222.076,278.772 222.009,278.516 221.975 C 278.063 221.914,278.053 221.936,278.146 222.841 M112.222 232.871 L 112.222 240.749 113.102 241.307 C 114.823 242.398,115.039 242.405,118.692 241.469 L 121.944 240.636 121.993 234.320 C 122.039 228.434,122.020 227.996,121.715 227.875 C 121.260 227.693,113.354 225.265,112.731 225.116 L 112.222 224.993 112.222 232.871 M166.573 230.557 C 166.098 231.082,166.299 231.124,166.835 230.612 C 167.080 230.377,167.197 230.185,167.095 230.185 C 166.993 230.185,166.758 230.352,166.573 230.557 M91.810 233.304 C 91.996 233.421,92.035 234.913,91.995 240.311 L 91.944 247.169 92.593 247.092 C 93.723 246.959,98.968 246.106,99.306 246.002 C 99.603 245.909,99.630 245.511,99.630 241.101 L 99.630 236.302 98.561 235.762 C 96.154 234.547,90.559 232.510,91.810 233.304 M278.565 241.263 C 278.201 241.315,278.148 241.431,278.148 242.189 L 278.148 243.056 281.528 243.013 C 286.782 242.947,298.023 242.595,298.125 242.493 C 298.604 242.013,281.053 240.909,278.565 241.263 M278.148 263.039 L 278.148 264.389 279.954 264.508 C 280.947 264.574,287.197 264.628,293.843 264.629 L 305.926 264.630 305.926 263.981 C 305.926 263.403,305.871 263.331,305.417 263.313 C 305.137 263.301,304.657 263.263,304.352 263.229 C 303.300 263.109,282.682 261.854,280.417 261.771 L 278.148 261.689 278.148 263.039 " stroke="none" fill="#7ac468" fill-rule="evenodd"></path></g></svg>