<svg width="40" height="40" viewBox="0 0 40 40" fill="none" xmlns="http://www.w3.org/2000/svg">
<mask id="mask0_511_1739" style="mask-type:alpha" maskUnits="userSpaceOnUse" x="0" y="0" width="40" height="40">
<rect y="0.105469" width="39.7906" height="39.7906" fill="#C4C4C4"/>
</mask>
<g mask="url(#mask0_511_1739)">
<path d="M36.8886 35.5361H36.3288C34.2572 34.4793 32.1856 33.4309 30.1139 32.3909C29.9682 32.3347 29.8067 32.3347 29.661 32.3909C28.1715 32.994 26.592 33.3448 24.9872 33.4288C23.1102 33.5605 21.226 33.3113 19.4478 32.6962C17.6696 32.0811 16.034 31.1128 14.6395 29.8496C13.3064 28.6906 12.2475 27.2499 11.5395 25.6315C10.8314 24.0132 10.4919 22.2577 10.5455 20.492C10.5991 18.7264 11.0444 16.9947 11.8493 15.4222C12.6542 13.8498 13.7985 12.4759 15.1994 11.3999C16.7208 10.169 18.4824 9.26922 20.3714 8.75798C22.2604 8.24673 24.2353 8.13531 26.1698 8.43083C29.1764 8.78953 31.9771 10.1423 34.1272 12.2743C36.1632 14.2104 37.443 16.8086 37.7369 19.6028C38.0309 22.3971 37.3198 25.2047 35.7312 27.5222C35.6766 27.6012 35.6423 27.6925 35.6313 27.7879C35.6204 27.8834 35.633 27.98 35.6683 28.0694C36.2931 29.9985 36.9096 31.9338 37.5177 33.8754C37.8007 34.7561 37.6686 35.0895 36.8886 35.5361ZM20.9488 20.8543C20.9488 20.6463 20.887 20.443 20.7713 20.2701C20.6556 20.0972 20.4912 19.9625 20.2989 19.8832C20.1065 19.8039 19.895 19.7835 19.691 19.8245C19.4871 19.8656 19.2999 19.9662 19.1533 20.1138C19.0066 20.2613 18.9071 20.4491 18.8672 20.6533C18.8274 20.8575 18.8491 21.0689 18.9296 21.2607C19.0101 21.4526 19.1457 21.6162 19.3193 21.7309C19.4929 21.8455 19.6966 21.9061 19.9046 21.9048C20.1796 21.8954 20.4407 21.7814 20.6346 21.5863C20.8286 21.3911 20.941 21.1294 20.9488 20.8543ZM25.1445 20.8543C25.1557 20.71 25.1369 20.5649 25.0894 20.4281C25.0418 20.2913 24.9665 20.1659 24.8681 20.0596C24.7698 19.9533 24.6506 19.8685 24.5179 19.8105C24.3852 19.7526 24.242 19.7226 24.0972 19.7226C23.9524 19.7226 23.8091 19.7526 23.6764 19.8105C23.5438 19.8685 23.4245 19.9533 23.3261 20.0596C23.2278 20.1659 23.1525 20.2913 23.1049 20.4281C23.0574 20.5649 23.0386 20.71 23.0498 20.8543C23.0702 21.1181 23.1895 21.3644 23.3836 21.5441C23.5778 21.7238 23.8326 21.8236 24.0972 21.8236C24.3617 21.8236 24.6165 21.7238 24.8107 21.5441C25.0048 21.3644 25.124 21.1181 25.1445 20.8543ZM29.3402 20.8543C29.3427 20.6463 29.2833 20.4422 29.1697 20.268C29.0561 20.0937 28.8933 19.9571 28.7019 19.8755C28.5106 19.7939 28.2993 19.7709 28.0949 19.8095C27.8905 19.8481 27.7021 19.9465 27.5537 20.0923C27.4053 20.2381 27.3035 20.4246 27.2612 20.6283C27.2189 20.832 27.2381 21.0437 27.3162 21.2365C27.3944 21.4293 27.528 21.5945 27.7002 21.7112C27.8724 21.828 28.0754 21.891 28.2834 21.8923C28.5564 21.8863 28.8171 21.7773 29.0131 21.5871C29.2091 21.3969 29.3259 21.1396 29.3402 20.8669V20.8543Z" fill="white"/>
<path d="M1.98926 15.6906C2.12136 15.0049 2.20943 14.313 2.39185 13.6399C2.81604 12.0685 3.54613 10.5962 4.54027 9.30735C5.53442 8.01853 6.77305 6.93852 8.18527 6.1292C10.4029 4.81215 12.93 4.10662 15.5092 4.08452C18.0883 4.06242 20.6272 4.72454 22.8671 6.0034L23.1438 6.19211C22.4582 6.28647 21.8166 6.34937 21.1812 6.46259C15.4696 7.46906 10.3744 11.5515 8.88354 17.345C8.4036 19.1318 8.29105 20.9974 8.5527 22.8289C8.81435 24.6605 9.44475 26.4199 10.4058 28.0009C10.4624 28.1015 10.519 28.2022 10.5819 28.3028C10.5442 28.3028 10.5127 28.3343 10.5064 28.3028C10.0221 27.9883 9.60693 28.177 9.15402 28.416C7.38013 29.3407 5.58737 30.2277 3.80719 31.1398C3.61139 31.2759 3.37588 31.3431 3.13772 31.3309C2.89956 31.3186 2.67224 31.2275 2.49148 31.072C2.31072 30.9164 2.18679 30.7052 2.13915 30.4715C2.09151 30.2378 2.12286 29.995 2.2283 29.7811C2.85733 27.8017 3.48637 25.8223 4.11541 23.8429C4.14915 23.7522 4.15935 23.6545 4.14505 23.5588C4.13075 23.4631 4.09241 23.3725 4.03363 23.2957C2.92503 21.6915 2.24116 19.8324 2.04589 17.8922C2.03286 17.803 2.01393 17.7148 1.98926 17.628V15.6906Z" fill="white"/>
</g>
</svg>