<svg width="41" height="40" viewBox="0 0 41 40" fill="none" xmlns="http://www.w3.org/2000/svg">
<mask id="mask0_511_1744" style="mask-type:alpha" maskUnits="userSpaceOnUse" x="0" y="0" width="41" height="40">
<rect x="0.791016" y="0.105469" width="39.7906" height="39.7906" fill="#C4C4C4"/>
</mask>
<g mask="url(#mask0_511_1744)">
<path d="M15.3797 35.3194H12.7098C12.0727 35.2398 11.4314 35.1853 10.7985 35.0847C8.45207 34.7252 6.18415 33.9683 4.09219 32.8465C3.6479 32.6076 3.21618 32.3393 2.78027 32.0837C4.68318 32.2261 6.59647 32.0447 8.43869 31.5472C10.2891 31.0296 12.0204 30.1553 13.5355 28.9736C12.005 28.9236 10.527 28.4035 9.30246 27.4841C8.07788 26.5647 7.16606 25.2906 6.69088 23.8349C7.76075 24.0113 8.85562 23.9627 9.90569 23.6924C5.63044 22.611 3.9455 18.8052 4.15088 16.391C5.13515 16.909 6.22459 17.1957 7.33635 17.2293C5.81583 16.163 4.75051 14.5652 4.35085 12.7516C3.9512 10.938 4.24625 9.04051 5.17776 7.43391C9.15542 12.1157 14.1893 14.7018 20.3591 15.121C20.1298 13.9312 20.1598 12.706 20.4471 11.5289C20.8618 10.0148 21.7464 8.67145 22.9734 7.69225C24.2004 6.71304 25.7066 6.14855 27.275 6.08007C28.2802 6.03983 29.283 6.20741 30.2205 6.57233C31.1581 6.93726 32.0103 7.49168 32.7238 8.20093C32.7819 8.26973 32.8592 8.31965 32.9458 8.34428C33.0324 8.36892 33.1244 8.36717 33.21 8.33925C34.6156 8.03057 35.9694 7.52097 37.2296 6.82615C37.3302 6.76747 37.4392 6.72137 37.6026 6.64173C37.0681 8.27275 35.9989 9.67571 34.568 10.6236C35.9542 10.4579 37.3093 10.0937 38.5918 9.54219C38.4996 9.68889 38.4577 9.75596 38.4116 9.82302C37.5248 11.1098 36.4331 12.2425 35.18 13.1762C35.0979 13.2281 35.0321 13.3019 34.9898 13.3893C34.9476 13.4767 34.9307 13.5742 34.9411 13.6707C34.9989 15.2386 34.8581 16.8075 34.5219 18.34C33.3274 23.9397 30.4981 28.4916 25.7744 31.7861C23.176 33.5842 20.1772 34.7195 17.0395 35.0931L15.3797 35.3194Z" fill="white"/>
</g>
</svg>
